<svg id="flat" height="512" viewBox="0 0 512 512" width="512" xmlns="http://www.w3.org/2000/svg"><path d="m272 488h200a16 16 0 0 0 16-16v-2.70477a48 48 0 0 0 -6.84034-24.6958l-4.90992-8.18319a48 48 0 0 1 -3.40721-42.52256l1.387-3.46761a55.52928 55.52928 0 0 0 3.21611-29.752l-2.284-13.70416a48 48 0 0 0 -18.54691-30.50885l-48.61473-36.46106h-64l-50.62561 33.75041a48 48 0 0 0 -21.37439 39.93841z" fill="#4fbfcb"/><path d="m409.37259 280a16 16 0 0 0 11.3137-4.68629l22.62742-22.6274a16 16 0 0 0 4.68629-11.31371v-25.3726a16 16 0 0 0 -16-16h-17.37258a16 16 0 0 0 -11.3137 4.68629l-6.62744 6.62742a16 16 0 0 1 -11.3137 4.68629h-49.37258v48a16 16 0 0 0 16 16z" fill="#3b9298"/><path d="m48 408v-176a8 8 0 0 1 8-8h104v184z" fill="#eebf3e"/><path d="m160 408v-184h104a8 8 0 0 1 8 8v176z" fill="#c69324"/><path d="m80 224v-56a8 8 0 0 1 8-8h72v64z" fill="#eebf3e"/><path d="m240 224v-56a8 8 0 0 0 -8-8h-72v64z" fill="#c69324"/><path d="m112 96h96a8 8 0 0 1 8 8v56a0 0 0 0 1 0 0h-112a0 0 0 0 1 0 0v-56a8 8 0 0 1 8-8z" fill="#eebf3e"/><path d="m192 96-16-24v-16a8 8 0 0 0 -8-8h-16a8 8 0 0 0 -8 8v16l-16 24z" fill="#eebf3e"/><path d="m152 16h16v32h-16z" fill="#c69324"/><g fill="#ffeaaa"><path d="m80 256h16v16h-16z"/><path d="m112 256h16v16h-16z"/><path d="m80 288h16v16h-16z"/><path d="m112 288h16v16h-16z"/><path d="m112 320h16v16h-16z"/><path d="m192 256h16v16h-16z"/><path d="m224 256h16v16h-16z"/><path d="m224 288h16v16h-16z"/><path d="m192 288h16v16h-16z"/><path d="m192 320h16v16h-16z"/><path d="m80 320h16v16h-16z"/><path d="m224 320h16v16h-16z"/><path d="m112 184h16v16h-16z"/><path d="m192 184h16v16h-16z"/><path d="m128 120h16v16h-16z"/><path d="m176 120h16v16h-16z"/></g><path d="m216 488v-104a16 16 0 0 0 -16-16h-80a16 16 0 0 0 -16 16v104" fill="#eebf3e"/><path d="m136 400h16v16h-16z" fill="#ffeaaa"/><path d="m168 400h16v16h-16z" fill="#ffeaaa"/><path d="m136 432h16v16h-16z" fill="#ffeaaa"/><path d="m168 432h16v16h-16z" fill="#ffeaaa"/><path d="m216 488h72a8 8 0 0 0 8-8v-56a16 16 0 0 0 -16-16h-64z" fill="#c69324"/><path d="m104 408h-64a16 16 0 0 0 -16 16v56a8 8 0 0 0 8 8h72z" fill="#c69324"/><path d="m56 440h16v16h-16z" fill="#ffeaaa"/><path d="m248 440h16v16h-16z" fill="#ffeaaa"/><path d="m392 280h-49.37258a16 16 0 0 1 -11.31371-4.68629l-22.62742-22.62743a16 16 0 0 1 -4.68629-11.3137v-17.37258a16 16 0 0 1 16-16h1.37258a16 16 0 0 1 11.31371 4.68629l30.62742 30.62742a16 16 0 0 0 11.31371 4.68629h1.37258a24 24 0 0 1 24 24 8 8 0 0 1 -8 8z" fill="#4fbfcb"/><path d="m384 376h-16a8 8 0 0 1 0-16h32v-16h-16v-16h-16v16a24 24 0 0 0 0 48h16a8 8 0 0 1 0 16h-32v16h16v16h16v-16a24 24 0 0 0 0-48z" fill="#efe8e0"/><path d="m312 376h16v16h-16z" fill="#efe8e0"/><path d="m424 376h16v16h-16z" fill="#efe8e0"/><path d="m208 96h-8v48h-80a15.99985 15.99985 0 0 0 -16 16h112v-56a7.99977 7.99977 0 0 0 -8-8z" fill="#c69324"/><path d="m232 160h-8v48h-64v16h80v-56a7.99977 7.99977 0 0 0 -8-8z" fill="#98630d"/><path d="m216 408h16v80h-16z" fill="#98630d"/><path d="m138.667 80-10.667 16h64l-10.667-16z" fill="#c69324"/></svg>