<svg id="Layer_5" enable-background="new 0 0 64 64" height="512" viewBox="0 0 64 64" width="512" xmlns="http://www.w3.org/2000/svg" xmlns:xlink="http://www.w3.org/1999/xlink"><linearGradient id="SVGID_1_" gradientUnits="userSpaceOnUse" x1="32" x2="32" y1="63" y2="1"><stop offset="0" stop-color="#9f2fff"/><stop offset="1" stop-color="#0bb1d3"/></linearGradient><path d="m31 21h-24c-1.103 0-2 .897-2 2v10c0 1.103.897 2 2 2h24c1.103 0 2-.897 2-2v-10c0-1.103-.897-2-2-2zm-24 12v-10h24l.001 10zm4 4h-4c-1.103 0-2 .897-2 2v2c0 1.103.897 2 2 2h4c1.103 0 2-.897 2-2v-2c0-1.103-.897-2-2-2zm-4 4v-2h4l.001 2zm14-4h-4c-1.103 0-2 .897-2 2v2c0 1.103.897 2 2 2h4c1.103 0 2-.897 2-2v-2c0-1.103-.897-2-2-2zm-4 4v-2h4l.001 2zm14-4h-4c-1.103 0-2 .897-2 2v2c0 1.103.897 2 2 2h4c1.103 0 2-.897 2-2v-2c0-1.103-.897-2-2-2zm-4 4v-2h4l.001 2zm-16 4h-4c-1.103 0-2 .897-2 2v2c0 1.103.897 2 2 2h4c1.103 0 2-.897 2-2v-2c0-1.103-.897-2-2-2zm-4 4v-2h4l.001 2zm14-4h-4c-1.103 0-2 .897-2 2v2c0 1.103.897 2 2 2h4c1.103 0 2-.897 2-2v-2c0-1.103-.897-2-2-2zm-4 4v-2h4l.001 2zm14-4h-4c-1.103 0-2 .897-2 2v2c0 1.103.897 2 2 2h4c1.103 0 2-.897 2-2v-2c0-1.103-.897-2-2-2zm-4 4v-2h4l.001 2zm-16 4h-4c-1.103 0-2 .897-2 2v2c0 1.103.897 2 2 2h4c1.103 0 2-.897 2-2v-2c0-1.103-.897-2-2-2zm-4 4v-2h4l.001 2zm14-4h-4c-1.103 0-2 .897-2 2v2c0 1.103.897 2 2 2h4c1.103 0 2-.897 2-2v-2c0-1.103-.897-2-2-2zm-4 4v-2h4l.001 2zm14-4h-4c-1.103 0-2 .897-2 2v2c0 1.103.897 2 2 2h4c1.103 0 2-.897 2-2v-2c0-1.103-.897-2-2-2zm-4 4v-2h4l.001 2zm-10-43.414v3.414h-11c-2.757 0-5 2.243-5 5v36c0 2.757 2.243 5 5 5h26c2.414 0 4.434-1.721 4.899-4h26.101v-58h-33.414zm12-9.172v8.586h-8.586zm6 53.586c0 1.654-1.346 3-3 3h-26c-1.654 0-3-1.346-3-3v-36c0-1.654 1.346-3 3-3h26c1.654 0 3 1.346 3 3zm26-1h-24v-35c0-2.757-2.243-5-5-5h-13v-2h12v-12h30zm-12-38v-1c0-.551-.449-1-1-1-1.654 0-3-1.346-3-3v-3h2v-2h2v2.184c1.161.414 2 1.514 2 2.816h-2c0-.551-.449-1-1-1h-1v1c0 .551.449 1 1 1 1.654 0 3 1.346 3 3v3h-2v2h-2v-2.184c-1.161-.414-2-1.514-2-2.816h2c0 .551.449 1 1 1zm-1 8c6.065 0 11-4.935 11-11s-4.935-11-11-11-11 4.935-11 11 4.935 11 11 11zm0-20c4.962 0 9 4.038 9 9s-4.038 9-9 9-9-4.038-9-9 4.038-9 9-9zm9 30h2v2h-2zm-2 0v2h-2v-2zm-4 0v2h-2v-2zm-4 0v2h-2v-2zm-4 0v2h-2v-2zm-2-4h18v2h-18zm0-4h18v2h-18zm-32-4h2v2h-2zm4 0h2v2h-2zm4 0h2v2h-2zm24 30h18v-14h-18zm2-12h14v10h-14z" fill="url(#SVGID_1_)"/></svg>