<svg enable-background="new 0 0 256 256" height="512" viewBox="0 0 256 256" width="512" xmlns="http://www.w3.org/2000/svg"><path d="m162.522 199.481c-7.868 0-14.958 3.383-19.899 8.769-4.941-5.386-12.032-8.769-19.899-8.769-3.328 0-6.516.609-9.463 1.715v-50.922c0-2.202 1.785-3.986 3.986-3.986h126.322c2.201 0 3.986 1.784 3.986 3.986v72.15c0 2.202-1.785 3.986-3.986 3.986h-54.039c-.045-14.856-12.142-26.929-27.008-26.929z" fill="#b2e26d"/><path d="m201.509 97.518-92.466-82.692-92.466 82.692c-2.145 1.919-5.44 1.736-7.36-.411-1.919-2.146-1.735-5.441.411-7.36l95.94-85.799c1.978-1.769 4.971-1.769 6.949 0l95.94 85.799c2.146 1.919 2.33 5.215.411 7.36-1.922 2.149-5.217 2.327-7.359.411z" fill="#edf4fc"/><path d="m109.043 14.826-88.121 78.806h176.242z" fill="#c7d7e5"/><path d="m101.157 210.252h-93.323c-2.879 0-5.212 2.334-5.212 5.213s2.334 5.212 5.212 5.212h88.517c.847-3.844 2.51-7.385 4.806-10.425z" fill="#dae6f1"/><path d="m113.262 201.196s-.001 0-.001.001v-1.37h-96.74c-2.879 0-5.212 2.334-5.212 5.212 0 2.879 2.334 5.213 5.212 5.213h84.635c3.069-4.065 7.259-7.237 12.106-9.056z" fill="#c7d7e5"/><g fill="#edf4fc"><path d="m113.26 189.402h-24.198c-2.879 0-5.212 2.334-5.212 5.213 0 2.878 2.334 5.212 5.212 5.212h24.199v-10.425z"/><path d="m70.818 194.614c0-2.879-2.334-5.212-5.212-5.212h-39.963c-2.879 0-5.212 2.334-5.212 5.212s2.334 5.212 5.212 5.212h39.962c2.879.001 5.213-2.333 5.213-5.212z"/><path d="m197.655 98.845c0-2.879-2.334-5.212-5.212-5.212h-39.963c-2.879 0-5.212 2.334-5.212 5.212s2.334 5.212 5.212 5.212h39.962c2.879 0 5.213-2.333 5.213-5.212z"/><path d="m134.236 98.845c0-2.879-2.334-5.212-5.212-5.212h-39.962c-2.879 0-5.212 2.334-5.212 5.212s2.334 5.212 5.212 5.212h39.962c2.878 0 5.212-2.333 5.212-5.212z"/><path d="m70.818 98.845c0-2.879-2.334-5.212-5.212-5.212h-39.963c-2.879 0-5.212 2.334-5.212 5.212s2.334 5.212 5.212 5.212h39.962c2.879 0 5.213-2.333 5.213-5.212z"/></g><path d="m113.26 180.5h-20.031c-2.141 0-3.877 1.736-3.877 3.877v5.025h23.909v-8.902z" fill="#dae6f1"/><path d="m192.442 104.057h-39.238v5.017c0 2.141 1.736 3.877 3.877 3.877h31.628c2.141 0 3.877-1.736 3.877-3.877v-5.025c-.047.002-.095.008-.144.008z" fill="#dae6f1"/><path d="m89.351 104.057v5.017c0 2.141 1.736 3.877 3.877 3.877h31.628c2.141 0 3.877-1.736 3.877-3.877v-5.017z" fill="#dae6f1"/><path d="m25.933 104.057v5.017c0 2.141 1.736 3.877 3.877 3.877h31.628c2.141 0 3.877-1.736 3.877-3.877v-5.017z" fill="#dae6f1"/><path d="m65.316 189.402v-5.025c0-2.141-1.736-3.877-3.877-3.877h-31.629c-2.141 0-3.877 1.736-3.877 3.877v5.025z" fill="#dae6f1"/><path d="m113.26 150.274c0-2.202 1.785-3.986 3.986-3.986h7.363v-33.336h-31.38c-.213 0-.418-.03-.621-.063v67.673c.203-.033.408-.062.621-.062h20.032v-30.226z" fill="#c7d7e5"/><path d="m188.897 146.288v-33.355c-.063.003-.123.019-.187.019h-31.628c-.064 0-.124-.016-.187-.019v33.355z" fill="#c7d7e5"/><path d="m29.81 180.5h31.381v-67.548h-31.381c-.213 0-.418-.03-.621-.063v67.673c.203-.033.408-.062.621-.062z" fill="#c7d7e5"/><path d="m152.48 93.632h-23.456c2.879 0 5.212 2.334 5.212 5.212s-2.334 5.212-5.212 5.212h-.29v4.551h24.47v-4.551h-.724c-2.879 0-5.212-2.334-5.212-5.212s2.333-5.212 5.212-5.212z" fill="#3a70bf"/><path d="m89.351 108.608v-4.551h-.29c-2.879 0-5.212-2.334-5.212-5.212s2.334-5.212 5.212-5.212h-23.456c2.879 0 5.212 2.334 5.212 5.212s-2.334 5.212-5.212 5.212h-.29v4.551z" fill="#3a70bf"/><path d="m156.894 146.288v-33.355c.063.003.123.019.187.019-2.141 0-3.877-1.736-3.877-3.877v-.466h-24.47v.466c0 2.141-1.736 3.877-3.877 3.877h-.247v33.336z" fill="#5290db"/><path d="m65.605 199.827h23.456c-2.879 0-5.212-2.334-5.212-5.212s2.334-5.212 5.212-5.212h.29v-5.025c0-2.141 1.736-3.877 3.877-3.877-.213 0-.418.03-.621.063v-67.673c.204.033.408.063.621.063-2.141 0-3.877-1.736-3.877-3.877v-.466h-24.035v.466c0 2.141-1.736 3.877-3.877 3.877h-.247v67.546h.247c2.141 0 3.877 1.736 3.877 3.877v5.025h.29c2.879 0 5.212 2.334 5.212 5.212s-2.334 5.213-5.213 5.213z" fill="#5290db"/><circle cx="109" cy="63" fill="#edf4fc" r="12.5"/><path d="m243.568 226.41h-20.667c0-13.616 11.038-24.653 24.653-24.653v20.667c0 2.202-1.785 3.986-3.986 3.986z" fill="#87d147"/><path d="m117.246 146.288h20.667c0 13.616-11.038 24.653-24.653 24.653v-20.667c0-2.201 1.785-3.986 3.986-3.986z" fill="#87d147"/><path d="m222.901 146.288h20.667c2.202 0 3.986 1.785 3.986 3.986v20.667c-13.616.001-24.653-11.037-24.653-24.653z" fill="#87d147"/><path d="m162.522 199.481c-1.886 0-3.728.196-5.506.566-2.365-4.023-3.728-8.703-3.728-13.698 0-14.954 12.166-27.12 27.12-27.12s27.12 12.166 27.12 27.12c0 13.087-9.318 24.039-21.668 26.569-4.689-8.027-13.391-13.437-23.338-13.437z" fill="#87d147"/><circle cx="162.522" cy="226.491" fill="#fcdd86" r="27.009"/><path d="m122.723 199.481c7.868 0 14.958 3.383 19.899 8.769-4.412 4.809-7.11 11.215-7.11 18.24s2.698 13.431 7.11 18.24c-4.941 5.386-12.032 8.769-19.899 8.769-14.893 0-27.009-12.116-27.009-27.009 0-14.892 12.116-27.009 27.009-27.009z" fill="#f5c84c"/><path d="m168.506 32.554c1.854.335 3.355-1.052 3.355-2.749 0-1.549-1.249-2.805-2.805-2.805-1.491 0-2.805 1.2-2.805 2.805.001 1.351.979 2.507 2.255 2.749z" fill="#3caadc"/><path d="m202.506 133.554c1.849.334 3.355-1.047 3.355-2.749 0-1.501-1.207-2.805-2.805-2.805-1.509 0-2.805 1.248-2.805 2.805.001 1.334.961 2.504 2.255 2.749z"/><path d="m143.943 13.234c3.995.744 7.144 3.829 7.904 7.743.038.197.313.197.351 0 .76-3.914 3.908-6.999 7.904-7.743.201-.037.201-.306 0-.344-3.995-.744-7.144-3.829-7.904-7.743-.038-.197-.313-.197-.351 0-.76 3.914-3.908 6.999-7.904 7.743-.201.038-.201.307 0 .344z" fill="#f5c84c"/><path d="m82.606 232.853c1.349.255 2.255 1.464 2.255 2.749 0 1.648-1.443 3.084-3.355 2.749-1.228-.232-2.255-1.345-2.255-2.749.001-1.73 1.555-3.084 3.355-2.749z" fill="#f5c84c"/><path d="m67.575 251.126h-2.07v2.07c0 1.549-1.256 2.805-2.805 2.805s-2.805-1.256-2.805-2.805v-2.07h-2.069c-1.549 0-2.805-1.256-2.805-2.805s1.256-2.805 2.805-2.805h2.069v-2.07c0-1.549 1.256-2.805 2.805-2.805s2.805 1.256 2.805 2.805v2.07h2.07c1.549 0 2.805 1.256 2.805 2.805s-1.256 2.805-2.805 2.805z" fill="#ef4460"/><path d="m183.854 201.296h-9.77c-1.381 0-2.5-1.119-2.5-2.5s1.119-2.5 2.5-2.5h9.77c2.053 0 3.724-1.67 3.724-3.723s-1.671-3.724-3.724-3.724h-6.893c-4.811 0-8.724-3.913-8.724-8.723s3.913-8.724 8.724-8.724h11.024c1.381 0 2.5 1.119 2.5 2.5s-1.119 2.5-2.5 2.5h-11.024c-2.053 0-3.724 1.67-3.724 3.724 0 2.053 1.671 3.723 3.724 3.723h6.893c4.811 0 8.724 3.914 8.724 8.724s-3.914 8.723-8.724 8.723z"/><path d="m180.407 205.554c-1.381 0-2.5-1.119-2.5-2.5v-33.409c0-1.381 1.119-2.5 2.5-2.5s2.5 1.119 2.5 2.5v33.409c0 1.381-1.119 2.5-2.5 2.5z"/><path d="m226.226 188.849h-6.136c-1.381 0-2.5-1.119-2.5-2.5s1.119-2.5 2.5-2.5h6.136c1.381 0 2.5 1.119 2.5 2.5s-1.12 2.5-2.5 2.5z"/><path d="m140.725 188.849h-6.137c-1.381 0-2.5-1.119-2.5-2.5s1.119-2.5 2.5-2.5h6.137c1.381 0 2.5 1.119 2.5 2.5s-1.12 2.5-2.5 2.5z"/><path d="m243.567 228.91h-54.038c-1.378 0-2.496-1.115-2.5-2.493-.04-13.474-11.034-24.436-24.508-24.436-6.835 0-13.416 2.901-18.058 7.959-.473.516-1.142.81-1.842.81-.7 0-1.369-.294-1.843-.81-4.64-5.058-11.221-7.959-18.056-7.959-2.946 0-5.834.523-8.584 1.556-.766.288-1.627.181-2.302-.286-.674-.467-1.076-1.235-1.076-2.055v-50.922c0-3.576 2.91-6.486 6.486-6.486h126.321c3.576 0 6.486 2.91 6.486 6.486v72.15c.001 3.576-2.909 6.486-6.486 6.486zm-51.65-5h51.65c.819 0 1.486-.667 1.486-1.486v-72.15c0-.819-.667-1.486-1.486-1.486h-126.321c-.819 0-1.486.667-1.486 1.486v47.54c2.271-.553 4.602-.833 6.963-.833 7.365 0 14.482 2.794 19.899 7.741 5.418-4.948 12.535-7.741 19.899-7.741 15.383 0 28.083 11.869 29.396 26.929z"/><path d="m13.112 101.345c-.146 0-.292-.004-.439-.012-2.057-.114-3.946-1.023-5.32-2.56-2.834-3.17-2.562-8.055.608-10.89l95.94-85.798c2.931-2.622 7.352-2.622 10.282 0l95.941 85.799c3.169 2.834 3.441 7.719.608 10.889-2.837 3.171-7.723 3.443-10.891.609-.001 0-.001 0-.001 0l-90.799-81.201-90.8 81.201c-1.424 1.275-3.231 1.963-5.129 1.963zm95.93-96.224c-.646 0-1.292.23-1.808.691l-95.94 85.798c-1.115.997-1.211 2.715-.214 3.83.483.541 1.147.86 1.871.9.724.042 1.419-.204 1.959-.686l92.466-82.691c.949-.849 2.384-.849 3.333 0l92.466 82.691h-.001c1.114.997 2.833.9 3.831-.214.996-1.114.9-2.833-.215-3.83l-95.94-85.798c-.515-.461-1.161-.691-1.808-.691z"/><path d="m197.164 96.132h-176.242c-1.037 0-1.966-.64-2.335-1.608s-.104-2.064.669-2.756l88.121-78.806c.949-.849 2.384-.849 3.333 0l88.122 78.806c.772.691 1.038 1.788.669 2.756-.371.969-1.301 1.608-2.337 1.608zm-169.696-5h163.15l-81.575-72.952z"/><path d="m96.351 223.177h-88.517c-4.252 0-7.712-3.46-7.712-7.712 0-4.253 3.46-7.713 7.712-7.713h93.323c.948 0 1.815.537 2.238 1.385.423.849.329 1.864-.242 2.621-2.133 2.826-3.6 6.008-4.36 9.457-.253 1.145-1.269 1.962-2.442 1.962zm-88.517-10.426c-1.496 0-2.712 1.217-2.712 2.713s1.217 2.712 2.712 2.712h86.578c.552-1.886 1.287-3.698 2.199-5.425z"/><path d="m101.157 212.751h-84.636c-4.253 0-7.713-3.46-7.713-7.712s3.46-7.712 7.713-7.712h96.739c1.381 0 2.5 1.119 2.5 2.5v1.37c0 1.042-.645 1.974-1.62 2.34-4.365 1.638-8.164 4.48-10.988 8.221-.472.626-1.211.993-1.995.993zm-84.636-10.424c-1.496 0-2.713 1.217-2.713 2.712s1.217 2.712 2.713 2.712h83.424c1.709-2.075 3.68-3.897 5.856-5.425h-89.28z"/><path d="m113.26 202.327h-24.198c-4.252 0-7.712-3.46-7.712-7.712s3.46-7.712 7.712-7.712h24.199c1.381 0 2.5 1.119 2.5 2.5v10.425c-.001 1.38-1.12 2.499-2.501 2.499zm-24.198-10.425c-1.496 0-2.712 1.217-2.712 2.712s1.217 2.712 2.712 2.712h21.699v-5.425h-21.699z"/><path d="m65.605 202.327h-39.962c-4.252 0-7.712-3.46-7.712-7.712s3.46-7.712 7.712-7.712h39.962c4.252 0 7.712 3.46 7.712 7.712s-3.459 7.712-7.712 7.712zm-39.962-10.425c-1.496 0-2.712 1.217-2.712 2.712s1.217 2.712 2.712 2.712h39.962c1.496 0 2.712-1.217 2.712-2.712s-1.217-2.712-2.712-2.712z"/><path d="m192.442 106.558h-39.962c-4.253 0-7.713-3.46-7.713-7.713 0-4.252 3.46-7.712 7.713-7.712h39.962c4.253 0 7.713 3.46 7.713 7.712 0 4.253-3.46 7.713-7.713 7.713zm-39.962-10.426c-1.496 0-2.713 1.217-2.713 2.712 0 1.496 1.217 2.713 2.713 2.713h39.962c1.496 0 2.713-1.217 2.713-2.713s-1.217-2.712-2.713-2.712z"/><path d="m129.023 106.558h-39.961c-4.252 0-7.712-3.46-7.712-7.713 0-4.252 3.46-7.712 7.712-7.712h39.962c4.253 0 7.713 3.46 7.713 7.712-.001 4.253-3.461 7.713-7.714 7.713zm-39.961-10.426c-1.496 0-2.712 1.217-2.712 2.712 0 1.496 1.217 2.713 2.712 2.713h39.962c1.496 0 2.713-1.217 2.713-2.713s-1.217-2.712-2.713-2.712z"/><path d="m65.605 106.558h-39.962c-4.252 0-7.712-3.46-7.712-7.713 0-4.252 3.46-7.712 7.712-7.712h39.962c4.252 0 7.712 3.46 7.712 7.712.001 4.253-3.459 7.713-7.712 7.713zm-39.962-10.426c-1.496 0-2.712 1.217-2.712 2.712 0 1.496 1.217 2.713 2.712 2.713h39.962c1.496 0 2.712-1.217 2.712-2.713s-1.217-2.712-2.712-2.712z"/><path d="m113.26 191.902h-23.909c-1.381 0-2.5-1.119-2.5-2.5v-5.025c0-3.516 2.861-6.377 6.377-6.377h20.032c1.381 0 2.5 1.119 2.5 2.5v8.902c0 1.381-1.119 2.5-2.5 2.5zm-21.409-5h18.909v-3.902h-17.531c-.76 0-1.377.618-1.377 1.377v2.525z"/><path d="m188.71 115.452h-31.629c-3.517 0-6.377-2.861-6.377-6.377v-5.017c0-1.381 1.119-2.5 2.5-2.5h39.184c.083-.005.153-.008.199-.007.653 0 1.282.256 1.75.715.479.47.75 1.113.75 1.785v5.024c0 3.516-2.86 6.377-6.377 6.377zm-33.006-8.894v2.517c0 .76.618 1.377 1.377 1.377h31.629c.759 0 1.377-.618 1.377-1.377v-2.517z"/><path d="m124.857 115.452h-31.628c-3.517 0-6.377-2.861-6.377-6.377v-5.017c0-1.381 1.119-2.5 2.5-2.5h39.383c1.381 0 2.5 1.119 2.5 2.5v5.017c-.001 3.516-2.861 6.377-6.378 6.377zm-33.006-8.894v2.517c0 .759.618 1.377 1.377 1.377h31.628c.76 0 1.377-.618 1.377-1.377v-2.517z"/><path d="m61.438 115.452h-31.628c-3.517 0-6.377-2.861-6.377-6.377v-5.017c0-1.381 1.119-2.5 2.5-2.5h39.383c1.381 0 2.5 1.119 2.5 2.5v5.017c0 3.516-2.861 6.377-6.378 6.377zm-33.005-8.894v2.517c0 .759.618 1.377 1.377 1.377h31.628c.76 0 1.377-.618 1.377-1.377v-2.517z"/><path d="m65.316 191.902h-39.383c-1.381 0-2.5-1.119-2.5-2.5v-5.025c0-3.517 2.861-6.377 6.377-6.377h31.628c3.517 0 6.377 2.861 6.377 6.377v5.025c.001 1.381-1.118 2.5-2.499 2.5zm-36.883-5h34.383v-2.525c0-.76-.618-1.377-1.377-1.377h-31.629c-.76 0-1.377.618-1.377 1.377z"/><path d="m177.782 147.788c-1.381 0-2.5-1.119-2.5-2.5v-19.739c0-1.381 1.119-2.5 2.5-2.5s2.5 1.119 2.5 2.5v19.739c0 1.381-1.119 2.5-2.5 2.5z"/><path d="m168.009 147.788c-1.381 0-2.5-1.119-2.5-2.5v-19.739c0-1.381 1.119-2.5 2.5-2.5s2.5 1.119 2.5 2.5v19.739c0 1.381-1.119 2.5-2.5 2.5z"/><path d="m113.495 150.057c-1.381 0-2.5-1.119-2.5-2.5v-22.008c0-1.381 1.119-2.5 2.5-2.5s2.5 1.119 2.5 2.5v22.008c0 1.381-1.119 2.5-2.5 2.5z"/><path d="m103.722 172.065c-1.381 0-2.5-1.119-2.5-2.5v-44.017c0-1.381 1.119-2.5 2.5-2.5s2.5 1.119 2.5 2.5v44.017c0 1.381-1.119 2.5-2.5 2.5z"/><path d="m50.077 172.065c-1.381 0-2.5-1.119-2.5-2.5v-44.017c0-1.381 1.119-2.5 2.5-2.5s2.5 1.119 2.5 2.5v44.017c0 1.381-1.119 2.5-2.5 2.5z"/><path d="m40.303 172.065c-1.381 0-2.5-1.119-2.5-2.5v-44.017c0-1.381 1.119-2.5 2.5-2.5s2.5 1.119 2.5 2.5v44.017c0 1.381-1.119 2.5-2.5 2.5z"/><path d="m92.607 183.062c-.589 0-1.164-.208-1.619-.595-.559-.475-.881-1.172-.881-1.905v-67.672c0-.732.321-1.428.879-1.903.558-.474 1.299-.68 2.019-.565.075.012.149.028.228.031h31.377c1.381 0 2.5 1.119 2.5 2.5v33.336c0 1.381-1.119 2.5-2.5 2.5h-7.363c-.819 0-1.486.667-1.486 1.486v30.225c0 1.381-1.119 2.5-2.5 2.5h-20.032c-.073.002-.146.018-.218.03-.135.022-.269.032-.404.032zm2.5-5.062h15.653v-27.726c0-3.577 2.91-6.486 6.486-6.486h4.863v-28.336h-27.002z"/><path d="m188.896 148.788h-32.002c-1.381 0-2.5-1.119-2.5-2.5v-33.354c0-.683.279-1.336.773-1.808.493-.471 1.163-.708 1.842-.689.046.002.121.009.19.016h31.394c.07-.007.145-.014.188-.016.68-.02 1.349.219 1.842.689.494.472.773 1.125.773 1.808v33.354c0 1.381-1.119 2.5-2.5 2.5zm-29.501-5h27.002v-28.336h-27.002z"/><path d="m29.189 183.062c-.589 0-1.164-.208-1.619-.595-.559-.475-.881-1.171-.881-1.905v-67.672c0-.732.321-1.428.878-1.903.558-.475 1.296-.682 2.018-.565.075.012.15.028.229.031h31.377c1.381 0 2.5 1.119 2.5 2.5v67.547c0 1.381-1.119 2.5-2.5 2.5h-31.379c-.075.002-.148.019-.221.03-.133.022-.268.032-.402.032zm2.5-5.062h27.002v-62.547h-27.002z"/><path d="m153.204 111.108h-24.47c-1.381 0-2.5-1.119-2.5-2.5v-4.551c0-1.381 1.119-2.5 2.5-2.5h.289c1.496 0 2.713-1.217 2.713-2.713s-1.217-2.712-2.713-2.712c-1.381 0-2.5-1.119-2.5-2.5s1.119-2.5 2.5-2.5h23.457c1.381 0 2.5 1.119 2.5 2.5s-1.119 2.5-2.5 2.5c-1.496 0-2.713 1.217-2.713 2.712 0 1.496 1.217 2.713 2.713 2.713h.724c1.381 0 2.5 1.119 2.5 2.5v4.551c0 1.381-1.119 2.5-2.5 2.5zm-21.585-5h18.266c-2.979-1.068-5.117-3.921-5.117-7.264 0-.954.174-1.868.492-2.712h-9.016c.318.844.492 1.758.492 2.712 0 3.344-2.137 6.197-5.117 7.264z"/><path d="m89.351 111.108h-24.035c-1.381 0-2.5-1.119-2.5-2.5v-4.551c0-1.381 1.119-2.5 2.5-2.5h.29c1.496 0 2.712-1.217 2.712-2.713s-1.217-2.712-2.712-2.712c-1.381 0-2.5-1.119-2.5-2.5s1.119-2.5 2.5-2.5h23.456c1.381 0 2.5 1.119 2.5 2.5s-1.119 2.5-2.5 2.5c-1.496 0-2.712 1.217-2.712 2.712 0 1.496 1.217 2.713 2.712 2.713h.29c1.381 0 2.5 1.119 2.5 2.5v4.551c-.001 1.381-1.12 2.5-2.501 2.5zm-21.15-5h18.266c-2.98-1.068-5.117-3.921-5.117-7.264 0-.954.174-1.868.492-2.712h-9.016c.318.844.492 1.758.492 2.712 0 3.344-2.137 6.197-5.117 7.264z"/><path d="m156.895 148.788h-32.285c-1.381 0-2.5-1.119-2.5-2.5v-33.336c0-1.381 1.119-2.5 2.5-2.5h.248c.76 0 1.377-.618 1.377-1.377v-.466c0-1.381 1.119-2.5 2.5-2.5h24.47c1.381 0 2.5 1.119 2.5 2.5v.466c0 .683.5 1.251 1.152 1.359.05-.002.103 0 .153.002.059.003.164.013.246.022 1.299.09 2.325 1.172 2.325 2.494 0 .336-.066.657-.187.949v32.387c.001 1.381-1.119 2.5-2.499 2.5zm-29.786-5h27.285v-28.93c-1.572-.733-2.798-2.09-3.358-3.75h-20.134c-.611 1.81-2.013 3.259-3.793 3.933zm29.981-33.336h.002c-.001 0-.001 0-.002 0zm-.005 0h.004c-.001 0-.003 0-.004 0zm-.004 0h.004c-.001 0-.003 0-.004 0z"/><path d="m89.062 202.327h-23.457c-1.381 0-2.5-1.119-2.5-2.5s1.119-2.5 2.5-2.5c1.496 0 2.712-1.217 2.712-2.712s-1.217-2.712-2.712-2.712h-.29c-1.381 0-2.5-1.119-2.5-2.5v-5.025c0-.76-.618-1.377-1.377-1.377h-.248c-1.381 0-2.5-1.119-2.5-2.5v-67.547c0-1.381 1.119-2.5 2.5-2.5h.248c.759 0 1.377-.618 1.377-1.377v-.466c0-1.381 1.119-2.5 2.5-2.5h24.035c1.381 0 2.5 1.119 2.5 2.5v.466c0 .633.429 1.167 1.011 1.328.047.005.095.011.142.019.075.012.15.028.228.031 1.379.001 2.497 1.12 2.497 2.5 0 .632-.234 1.209-.621 1.649v64.249c.387.44.621 1.018.621 1.649 0 1.381-1.119 2.5-2.5 2.5-.072.002-.146.019-.219.03-.05.008-.1.015-.15.02-.581.162-1.008.695-1.008 1.327v5.025c0 1.381-1.119 2.5-2.5 2.5h-.29c-1.496 0-2.712 1.217-2.712 2.712s1.217 2.712 2.712 2.712c1.381 0 2.5 1.119 2.5 2.5s-1.119 2.499-2.499 2.499zm-16.236-5h9.016c-.318-.844-.492-1.758-.492-2.712 0-3.485 2.323-6.437 5.502-7.39v-2.848c0-2.383 1.314-4.466 3.256-5.56v-64.182c-1.363-.768-2.417-2.022-2.924-3.526h-19.7c-.61 1.81-2.013 3.259-3.792 3.933v63.369c2.408.912 4.125 3.243 4.125 5.967v2.848c3.179.953 5.502 3.905 5.502 7.39-.001.952-.175 1.866-.493 2.711z"/><path d="m76.465 171.92c-1.381 0-2.5-1.119-2.5-2.5v-44.306c0-1.381 1.119-2.5 2.5-2.5s2.5 1.119 2.5 2.5v44.306c0 1.381-1.119 2.5-2.5 2.5z"/><path d="m140.752 147.788c-1.381 0-2.5-1.119-2.5-2.5v-20.173c0-1.381 1.119-2.5 2.5-2.5s2.5 1.119 2.5 2.5v20.173c0 1.381-1.119 2.5-2.5 2.5z"/><path d="m109 78c-8.271 0-15-6.729-15-15s6.729-15 15-15 15 6.729 15 15-6.729 15-15 15zm0-25c-5.514 0-10 4.486-10 10s4.486 10 10 10 10-4.486 10-10-4.486-10-10-10z"/><path d="m165.901 240.748h-9.144c-1.381 0-2.5-1.119-2.5-2.5s1.119-2.5 2.5-2.5h9.144c1.833 0 3.324-1.491 3.324-3.324s-1.491-3.324-3.324-3.324h-6.451c-4.59 0-8.324-3.734-8.324-8.324s3.734-8.324 8.324-8.324h10.317c1.381 0 2.5 1.119 2.5 2.5s-1.119 2.5-2.5 2.5h-10.317c-1.833 0-3.324 1.491-3.324 3.324s1.491 3.324 3.324 3.324h6.451c4.59 0 8.324 3.734 8.324 8.324s-3.734 8.324-8.324 8.324z"/><path d="m162.676 244.732c-1.381 0-2.5-1.119-2.5-2.5v-31.266c0-1.381 1.119-2.5 2.5-2.5s2.5 1.119 2.5 2.5v31.266c0 1.381-1.119 2.5-2.5 2.5z"/><path d="m125.901 240.748h-9.143c-1.381 0-2.5-1.119-2.5-2.5s1.119-2.5 2.5-2.5h9.143c1.833 0 3.325-1.491 3.325-3.324s-1.491-3.324-3.325-3.324h-6.451c-4.59 0-8.324-3.734-8.324-8.324s3.734-8.324 8.324-8.324h10.317c1.381 0 2.5 1.119 2.5 2.5s-1.119 2.5-2.5 2.5h-10.317c-1.833 0-3.324 1.491-3.324 3.324s1.491 3.324 3.324 3.324h6.451c4.59 0 8.325 3.734 8.325 8.324s-3.735 8.324-8.325 8.324z"/><path d="m122.676 244.732c-1.381 0-2.5-1.119-2.5-2.5v-31.266c0-1.381 1.119-2.5 2.5-2.5s2.5 1.119 2.5 2.5v31.266c0 1.381-1.119 2.5-2.5 2.5z"/><path d="m243.567 228.91h-20.667c-1.381 0-2.5-1.119-2.5-2.5 0-14.972 12.181-27.153 27.153-27.153 1.381 0 2.5 1.119 2.5 2.5v20.667c.001 3.576-2.909 6.486-6.486 6.486zm-18.026-5h18.026c.819 0 1.486-.667 1.486-1.486v-18.027c-10.222 1.153-18.36 9.29-19.512 19.513z"/><path d="m113.26 173.441c-1.381 0-2.5-1.119-2.5-2.5v-20.667c0-3.576 2.91-6.486 6.486-6.486h20.667c1.381 0 2.5 1.119 2.5 2.5 0 14.972-12.181 27.153-27.153 27.153zm3.986-24.653c-.819 0-1.486.667-1.486 1.486v18.027c10.223-1.153 18.36-9.29 19.512-19.513z"/><path d="m247.554 173.441c-14.973 0-27.153-12.181-27.153-27.153 0-1.381 1.119-2.5 2.5-2.5h20.667c3.576 0 6.486 2.91 6.486 6.486v20.667c0 1.381-1.119 2.5-2.5 2.5zm-22.013-24.653c1.152 10.223 9.29 18.36 19.513 19.513v-18.027c0-.819-.667-1.486-1.486-1.486z"/><path d="m185.857 215.418c-.876 0-1.704-.461-2.158-1.239-4.393-7.524-12.508-12.198-21.178-12.198-1.676 0-3.357.173-4.997.514-1.047.216-2.121-.257-2.664-1.181-2.665-4.533-4.073-9.708-4.073-14.965 0-16.333 13.287-29.62 29.62-29.62 16.332 0 29.619 13.287 29.619 29.62 0 14.004-9.953 26.208-23.666 29.019-.168.034-.336.05-.503.05zm-23.336-18.437c9.814 0 19.036 4.97 24.498 13.086 10.53-2.938 18.007-12.652 18.007-23.718 0-13.575-11.044-24.62-24.619-24.62s-24.62 11.044-24.62 24.62c0 3.796.884 7.54 2.569 10.927 1.379-.195 2.774-.295 4.165-.295z"/><path d="m162.521 256c-16.271 0-29.509-13.238-29.509-29.509s13.237-29.509 29.509-29.509 29.51 13.238 29.51 29.509-13.238 29.509-29.51 29.509zm0-54.019c-13.515 0-24.509 10.995-24.509 24.509s10.995 24.51 24.509 24.51 24.51-10.995 24.51-24.509-10.995-24.51-24.51-24.51z"/><path d="m122.723 256c-16.271 0-29.509-13.238-29.509-29.509s13.238-29.509 29.509-29.509c8.233 0 16.157 3.491 21.741 9.579.877.956.878 2.424.001 3.38-4.161 4.536-6.452 10.414-6.452 16.55 0 6.137 2.291 12.015 6.452 16.55.877.956.876 2.424-.001 3.38-5.584 6.088-13.508 9.579-21.741 9.579zm0-54.019c-13.515 0-24.509 10.995-24.509 24.509s10.994 24.51 24.509 24.51c6.105 0 12.008-2.314 16.505-6.413-4.023-5.167-6.216-11.507-6.216-18.096s2.191-12.929 6.216-18.096c-4.497-4.099-10.399-6.414-16.505-6.414z"/></svg>